<svg width="64" height="65" viewBox="0 0 64 65" fill="none" xmlns="http://www.w3.org/2000/svg">
<rect y="0.138672" width="64" height="64" rx="15" fill="url(#paint0_linear_144_1749)"/>
<path d="M23.6668 28.8054V30.0554C24.3572 30.0554 24.9168 29.4957 24.9168 28.8054H23.6668ZM40.3335 28.8054H39.0835C39.0835 29.4957 39.6431 30.0554 40.3335 30.0554V28.8054ZM22.8335 30.0554H23.6668V27.5554H22.8335V30.0554ZM24.9168 28.8054V27.1387H22.4168V28.8054H24.9168ZM39.0835 27.1387V28.8054H41.5835V27.1387H39.0835ZM40.3335 30.0554H41.1668V27.5554H40.3335V30.0554ZM47.4168 36.3054C47.4168 38.1307 46.8605 39.705 45.9327 40.801C45.0217 41.8773 43.7042 42.5554 42.0002 42.5554V45.0554C44.4383 45.0554 46.4541 44.0545 47.8409 42.4163C49.2108 40.7979 49.9168 38.6221 49.9168 36.3054H47.4168ZM32.0002 20.0554C35.9122 20.0554 39.0835 23.2267 39.0835 27.1387H41.5835C41.5835 21.846 37.2929 17.5554 32.0002 17.5554V20.0554ZM24.9168 27.1387C24.9168 23.2267 28.0881 20.0554 32.0002 20.0554V17.5554C26.7074 17.5554 22.4168 21.846 22.4168 27.1387H24.9168ZM41.1668 30.0554C44.6186 30.0554 47.4168 32.8536 47.4168 36.3054H49.9168C49.9168 31.4729 45.9993 27.5554 41.1668 27.5554V30.0554ZM16.5835 36.3054C16.5835 32.8536 19.3817 30.0554 22.8335 30.0554V27.5554C18.001 27.5554 14.0835 31.4729 14.0835 36.3054H16.5835ZM22.0002 42.5554C20.2961 42.5554 18.9786 41.8773 18.0676 40.801C17.1398 39.705 16.5835 38.1307 16.5835 36.3054H14.0835C14.0835 38.6221 14.7895 40.7979 16.1595 42.4163C17.5462 44.0545 19.5621 45.0554 22.0002 45.0554V42.5554ZM22.0002 45.0554H42.0002V42.5554H22.0002V45.0554Z" fill="white"/>
<defs>
<linearGradient id="paint0_linear_144_1749" x1="58" y1="58.1387" x2="5.5" y2="4.63867" gradientUnits="userSpaceOnUse">
<stop stop-color="#F8AB29"/>
<stop offset="1" stop-color="#FFD285"/>
</linearGradient>
</defs>
</svg>
