<svg width="64" height="65" viewBox="0 0 64 65" fill="none" xmlns="http://www.w3.org/2000/svg">
<rect y="0.138672" width="64" height="64" rx="15" fill="url(#paint0_linear_144_1747)"/>
<path d="M21.9999 45.0554C22.6903 45.0554 23.2499 44.4957 23.2499 43.8054C23.2499 43.115 22.6903 42.5554 21.9999 42.5554V45.0554ZM23.6666 28.8054V30.0554C24.3569 30.0554 24.9166 29.4957 24.9166 28.8054H23.6666ZM40.3333 28.8054H39.0833C39.0833 29.4957 39.6429 30.0554 40.3333 30.0554V28.8054ZM41.9999 42.5554C41.3096 42.5554 40.7499 43.115 40.7499 43.8054C40.7499 44.4957 41.3096 45.0554 41.9999 45.0554V42.5554ZM22.8333 30.0554H23.6666V27.5554H22.8333V30.0554ZM24.9166 28.8054V27.1387H22.4166V28.8054H24.9166ZM39.0833 27.1387V28.8054H41.5833V27.1387H39.0833ZM40.3333 30.0554H41.1666V27.5554H40.3333V30.0554ZM47.4166 36.3054C47.4166 38.1307 46.8603 39.705 45.9325 40.801C45.0215 41.8773 43.7039 42.5554 41.9999 42.5554V45.0554C44.438 45.0554 46.4539 44.0545 47.8406 42.4163C49.2106 40.7979 49.9166 38.6221 49.9166 36.3054H47.4166ZM31.9999 20.0554C35.9119 20.0554 39.0833 23.2267 39.0833 27.1387H41.5833C41.5833 21.846 37.2926 17.5554 31.9999 17.5554V20.0554ZM24.9166 27.1387C24.9166 23.2267 28.0879 20.0554 31.9999 20.0554V17.5554C26.7072 17.5554 22.4166 21.846 22.4166 27.1387H24.9166ZM41.1666 30.0554C44.6184 30.0554 47.4166 32.8536 47.4166 36.3054H49.9166C49.9166 31.4729 45.9991 27.5554 41.1666 27.5554V30.0554ZM16.5833 36.3054C16.5833 32.8536 19.3815 30.0554 22.8333 30.0554V27.5554C18.0008 27.5554 14.0833 31.4729 14.0833 36.3054H16.5833ZM21.9999 42.5554C20.2959 42.5554 18.9784 41.8773 18.0674 40.801C17.1395 39.705 16.5833 38.1307 16.5833 36.3054H14.0833C14.0833 38.6221 14.7892 40.7979 16.1592 42.4163C17.546 44.0545 19.5618 45.0554 21.9999 45.0554V42.5554Z" fill="white"/>
<path d="M27 44.6387V37.9721C27 37.5118 27.3731 37.1387 27.8333 37.1387H36.1667C36.6269 37.1387 37 37.5118 37 37.9721V44.6387C37 45.099 36.6269 45.4721 36.1667 45.4721H27.8333C27.3731 45.4721 27 45.099 27 44.6387Z" stroke="white" stroke-width="2.5" stroke-linecap="round" stroke-linejoin="round"/>
<path d="M28.6665 37.1387V35.4721C28.6665 33.6311 30.1589 32.1387 31.9998 32.1387V32.1387C33.8408 32.1387 35.3332 33.6311 35.3332 35.4721V37.1387" stroke="white" stroke-width="2.5" stroke-linecap="round" stroke-linejoin="round"/>
<defs>
<linearGradient id="paint0_linear_144_1747" x1="57.5" y1="60.6387" x2="3.50001" y2="3.63868" gradientUnits="userSpaceOnUse">
<stop stop-color="#F65F5F"/>
<stop offset="1" stop-color="#FF8989"/>
</linearGradient>
</defs>
</svg>
