<svg width="22" height="22" viewBox="0 0 22 22" fill="none" xmlns="http://www.w3.org/2000/svg">
<path fill-rule="evenodd" clip-rule="evenodd" d="M14.1756 11.2459L19.9376 6.30689V15.7731L14.1756 11.2459ZM8.88868 12.1582L10.5524 13.5848C10.8103 13.8055 11.1898 13.8055 11.4476 13.5848L13.1113 12.1582L18.6368 16.5005H3.36183L8.88868 12.1582ZM11 12.1575L3.23325 5.50038H18.7667L11 12.1575ZM2.06252 6.30756L7.8245 11.2459L2.06252 15.7731V6.30756ZM21.3127 17.1881V4.81299C21.3127 4.42799 20.9558 4.12549 20.6252 4.12549H1.37501C1.02713 4.12549 0.6875 4.42387 0.6875 4.81299V17.1881C0.6875 17.549 1.01544 17.8756 1.37501 17.8756H20.6252C21.0115 17.8756 21.3127 17.5339 21.3127 17.1881Z" fill="white"/>
</svg>
