<svg width="20" height="26" viewBox="0 0 20 26" fill="none" xmlns="http://www.w3.org/2000/svg">
<path d="M16.8609 14.656C16.8609 20.0348 11.3517 23.3486 10.2068 23.9798C10.1434 24.0148 10.0722 24.0331 9.99974 24.0331C9.9273 24.0331 9.85605 24.0148 9.79263 23.9798C8.64688 23.3486 3.1394 20.0348 3.1394 14.656C3.1394 10.368 5.71219 7.36646 10.0002 7.36646C14.2881 7.36646 16.8609 10.368 16.8609 14.656Z" stroke="white" stroke-width="1.4" stroke-linecap="round" stroke-linejoin="round"/>
<path d="M6.56982 14.2273C6.56982 15.137 6.93124 16.0096 7.57456 16.6529C8.21788 17.2962 9.09041 17.6576 10.0002 17.6576C10.91 17.6576 11.7825 17.2962 12.4258 16.6529C13.0692 16.0096 13.4306 15.137 13.4306 14.2273C13.4306 13.3175 13.0692 12.4449 12.4258 11.8016C11.7825 11.1583 10.91 10.7969 10.0002 10.7969C9.09041 10.7969 8.21788 11.1583 7.57456 11.8016C6.93124 12.4449 6.56982 13.3175 6.56982 14.2273V14.2273Z" stroke="white" stroke-width="1.4" stroke-linecap="round" stroke-linejoin="round"/>
</svg>
