<svg width="64" height="65" viewBox="0 0 64 65" fill="none" xmlns="http://www.w3.org/2000/svg">
<rect y="0.138672" width="64" height="64" rx="15" fill="url(#paint0_linear_144_1748)"/>
<path d="M45.9182 26.5454C47.1792 29.6832 47.3429 33.1551 46.3827 36.3977C45.4225 39.6403 43.3947 42.4632 40.6285 44.4085C37.8622 46.3538 34.5198 47.3072 31.1435 47.1141C29.7201 47.0327 28.326 46.7496 27 46.2808M35.3334 17.5137C32.2493 16.8107 29.0157 17.0998 26.0979 18.3486C22.989 19.6792 20.4208 22.0214 18.8103 24.995C18.537 25.4995 18.2941 26.0172 18.0818 26.5454C17.0432 29.1299 16.7405 31.9644 17.2256 34.7301C17.4069 35.764 17.6951 36.7695 18.0818 37.7319" stroke="white" stroke-width="2.5" stroke-linecap="round"/>
<circle cx="38.6666" cy="18.8053" r="3.33333" stroke="white" stroke-width="2.5"/>
<circle cx="23.6666" cy="45.4719" r="3.33333" stroke="white" stroke-width="2.5"/>
<path d="M27.6671 28.8236L31.3959 27.3735C31.7845 27.2224 32.2155 27.2224 32.6041 27.3735L36.3329 28.8236C36.7351 28.98 37 29.3673 37 29.7988V31.3878C37 33.6142 35.9721 35.7159 34.2147 37.0827C32.912 38.0959 31.088 38.0959 29.7853 37.0827C28.0279 35.7159 27 33.6142 27 31.3878V29.7988C27 29.3673 27.2649 28.98 27.6671 28.8236Z" stroke="white" stroke-width="2.5" stroke-linecap="round" stroke-linejoin="round"/>
<defs>
<linearGradient id="paint0_linear_144_1748" x1="60.5" y1="58.6387" x2="6.5" y2="5.13867" gradientUnits="userSpaceOnUse">
<stop stop-color="#5895FA"/>
<stop offset="1" stop-color="#86B4FF"/>
</linearGradient>
</defs>
</svg>
